<?xml version="1.0" encoding="UTF-8" standalone="no"?>
<!DOCTYPE svg PUBLIC "-//W3C//DTD SVG 1.1//EN" "http://www.w3.org/Graphics/SVG/1.1/DTD/svg11.dtd">
<svg width="100%" height="100%" viewBox="0 0 64 64" version="1.1" xmlns="http://www.w3.org/2000/svg" xmlns:xlink="http://www.w3.org/1999/xlink" xml:space="preserve" xmlns:serif="http://www.serif.com/" style="fill-rule:evenodd;clip-rule:evenodd;stroke-linejoin:round;stroke-miterlimit:2;">
    <g id="Mesa-de-trabajo1" serif:id="Mesa de trabajo1" transform="matrix(0.077576,0,0,0.106312,-4.266667,-1.275748)">
        <rect x="55" y="12" width="825" height="602" style="fill:none;"/>
        <clipPath id="_clip1">
            <rect x="55" y="12" width="825" height="602"/>
        </clipPath>
        <g clip-path="url(#_clip1)">
            <g id="Background" transform="matrix(2.904967,0,0,2.119745,-78.475419,-17.54844)">
                <path d="M158.964,81.5C158.942,54.811 158.824,54.82 158.824,52.5C158.823,45.671 158.692,45.594 159.097,45.133C160.061,44.034 160.303,44.635 161.553,45.402C162.63,46.064 162.617,46.065 162.713,46.117C171.034,50.645 170.974,50.733 171.698,51.123C173.292,51.98 213.998,74.998 214.608,75.248C215.082,75.443 215.456,76.445 221.222,73.018C221.87,72.632 225.066,70.733 229.405,68.327C230.281,67.841 237.838,63.65 240.341,62.219C255.016,53.831 255.054,53.938 256.307,53.173C257.94,52.178 270.035,45.421 270.366,45.2C270.521,45.096 272.177,43.99 272.692,45.408C272.861,45.873 272.7,59.392 272.776,63.493C273.103,81.168 272.411,105.543 273.279,107.616C273.438,107.993 273.653,108.506 277.468,110.554C277.856,110.762 305.525,126.209 305.633,126.278C306.99,127.142 318.5,133.429 319.698,134.164C321.745,135.42 328.85,139.033 329.269,139.652C329.378,139.814 329.288,140.952 329.133,141.138C329.005,141.292 318.537,147.179 317.613,147.699C305.78,154.353 305.777,154.332 304.758,154.925C274.725,172.421 273.639,171.797 273.241,174.468C273.104,175.384 273.104,213.137 273.104,216.5C273.104,235.469 273.143,235.505 272.914,235.801C271.99,236.995 271.695,236.443 270.407,235.677C267.881,234.173 267.446,234.153 265.307,232.83C263.968,232.001 263.962,232.042 244.609,221.305C234.129,215.491 234.208,215.374 233.289,214.885C220.102,207.851 218.285,206.206 216.44,205.767C215.176,205.467 215.103,205.678 205.287,211.105C187.979,220.675 188.086,220.823 186.55,221.591C184.675,222.53 174.983,228.039 171.686,229.845C161.223,235.576 161.376,235.849 160.402,236.201C158.736,236.803 158.765,234.673 158.767,234.483C158.916,223.475 158.775,175.885 159.018,174.429C159.398,172.152 160.055,172.401 175.431,163.385C177.72,162.043 199.328,149.48 201.388,148.305C202.351,147.756 212.981,141.693 213.364,141.334C213.617,141.097 214.067,139.953 214.033,139.784C213.95,139.372 183.467,122.415 182.786,122.009C174.365,116.985 160.459,109.822 159.571,108.453C158.735,107.164 159.208,100.636 159.081,96.508C158.96,92.591 158.964,92.597 158.964,81.5Z" style="fill:rgb(225,20,24);"/>
                <path d="M61.591,130.651C62.644,129.983 96.841,110.924 98.678,109.809C102.51,107.484 102.803,108.931 106.742,111.075C108.721,112.153 114.695,115.404 131.346,124.78C139.605,129.43 139.618,129.386 140.326,129.807C143.805,131.876 143.857,131.736 147.363,133.745C156.088,138.745 156.137,138.652 156.854,139.152C158.795,140.506 156.757,141.521 156.58,141.61C155.338,142.229 155.408,142.313 154.215,143.013C151.533,144.586 151.456,144.42 148.778,145.97C146.234,147.443 146.293,147.512 143.726,148.92C143.154,149.235 126.554,158.842 122.728,160.922C119.944,162.435 120.055,162.601 117.29,164.133C110.101,168.118 110.161,168.22 109.526,168.547C102.852,171.974 102.503,173.73 99.365,171.728C96.639,169.988 94.561,169.149 92.344,167.768C90.787,166.798 86.114,164.283 84.574,163.377C79.084,160.146 79.007,160.3 76.777,159.008C64.067,151.645 45.789,141.558 45.639,141.365C44.976,140.51 45.541,139.726 45.623,139.612C45.769,139.41 53.1,135.437 61.591,130.651Z" style="fill:rgb(225,20,24);"/>
            </g>
        </g>
    </g>
</svg>
